#!OML:ASF H:\Terrain\Patient Classification 1\Walking\liu\liu.ASF
:FULLY-SPECIFIED
:DEGREES
501
root 11.666600 18.589560 37.493500 6.384950 5.384478 5.437102
lowerback -8.139406 -5.803259 -6.436320
upperback 0.493543 -7.257316 1.825725
thorax 6.022225 -3.797629 4.583788
lowerneck -26.089800 -3.134362 -11.545711
upperneck 26.758709 -3.693789 12.167210
head 13.601060 -1.119448 5.991029
rclavicle 0.000000 -0.000000
rhumerus -54.445049 5.834466 -91.616585
rradius 35.513611
rwrist -18.056831
rhand -32.391922 -22.536249
rfingers 7.837522
rthumb -3.061927 -55.494011
lclavicle 0.000000 -0.000000
lhumerus -17.588890 -26.943069 97.626320
lradius 39.196083
lwrist 8.346096
lhand -13.552990 -28.515520
lfingers 7.837522
lthumb 15.122580 3.962926
rfemur -46.496120 9.749333 12.325390
rtibia 30.565151
rfoot -27.023149 -14.609210
rtoes -28.919880
lfemur 21.504999 1.226896 -30.391680
ltibia 0.000000
lfoot -18.110950 4.047054
ltoes -3.120326
502
root 11.650761 18.541050 37.704369 6.444350 5.283333 5.993273
lowerback -8.374125 -5.775066 -6.825346
upperback 0.550403 -7.155170 1.571614
thorax 6.216529 -3.758480 4.524344
lowerneck -26.121920 -3.107181 -11.273350
upperneck 26.475239 -3.673439 11.962390
head 13.483910 -1.107634 5.851648
rclavicle -0.000000 -0.000000
rhumerus -54.504341 5.218499 -91.337952
rradius 34.970428
rwrist -17.498140
rhand -31.743912 -22.176991
rfingers 7.837522
rthumb -2.436115 -55.142120
lclavicle -0.000000 -0.000000
lhumerus -18.532471 -27.792049 98.169830
lradius 39.010620
lwrist 8.779529
lhand -12.163691 -28.205650
lfingers 7.837522
lthumb 16.461170 4.177679
rfemur -46.311653 8.541456 12.595330
rtibia 31.350109
rfoot -27.023149 -14.609210
rtoes -28.919880
lfemur 22.304152 1.224641 -30.819469
ltibia 0.000000
lfoot -18.239210 3.491697
ltoes -1.320385
503
root 11.618970 18.504200 37.891590 6.349596 5.174048 6.479385
lowerback -8.033828 -5.818890 -7.442435
upperback 0.513727 -7.173914 1.420265
thorax 6.041607 -3.778456 4.734917
lowerneck -26.048222 -2.848208 -10.724659
upperneck 26.173950 -3.396305 11.620840
head 13.298670 -0.975559 5.652834
rclavicle -0.000000 -0.000000
rhumerus -54.433720 5.093121 -91.318481
rradius 34.006279
rwrist -17.205431
rhand -31.796270 -24.508770
rfingers 7.837522
rthumb -2.486715 -57.473244
lclavicle -0.000000 -0.000000
lhumerus -19.756660 -28.568430 98.888237
lradius 38.145687
lwrist 6.841164
lhand -14.402740 -29.182781
lfingers 7.837522
lthumb 14.303519 3.349489
rfemur -46.296803 8.005580 12.699829
rtibia 32.250351
rfoot -27.023149 -14.609210
rtoes -28.919880
lfemur 23.002651 1.253197 -31.131430
ltibia 0.000000
lfoot -17.824839 3.501036
ltoes -1.405822
504
root 11.586631 18.494520 38.081558 6.359881 5.256581 6.293111
lowerback -7.831747 -5.826458 -7.295376
upperback 0.401214 -7.216517 1.480303
thorax 5.804271 -3.788015 4.734378
lowerneck -26.080339 -2.899776 -10.951534
upperneck 26.082760 -3.480213 11.981970
head 13.291739 -0.986182 5.816921
rclavicle -0.000000 0.000000
rhumerus -54.544823 4.764639 -91.146439
rradius 33.187878
rwrist -16.786659
rhand -32.172798 -27.363819
rfingers 7.837522
rthumb -2.850353 -60.324219
lclavicle -0.000000 0.000000
lhumerus -20.359348 -27.554562 99.208664
lradius 38.176380
lwrist 8.563269
lhand -15.299680 -29.276171
lfingers 7.837522
lthumb 13.438810 3.309383
rfemur -46.512402 7.490527 13.484350
rtibia 33.416679
rfoot -27.023149 -14.609210
rtoes -28.919880
lfemur 23.598740 1.137147 -30.774040
ltibia -0.000000
lfoot -17.214121 4.315245
ltoes -6.453326
505
root 11.554951 18.502439 38.293640 6.695128 5.535244 5.188315
lowerback -8.312810 -5.826260 -6.096706
upperback 0.270481 -7.309324 1.809522
thorax 5.848524 -3.803690 4.368430
lowerneck -25.973200 -2.997731 -11.381370
upperneck 25.795879 -3.586275 12.464430
head 13.191420 -1.012234 6.049329
rclavicle 0.000000 -0.000000
rhumerus -54.734680 4.170287 -90.712158
rradius 32.630951
rwrist -16.066050
rhand -31.152990 -29.277161
rfingers 7.837522
rthumb -1.865380 -62.247459
lclavicle 0.000000 -0.000000
lhumerus -21.132980 -27.871029 99.730400
lradius 37.780819
lwrist 9.040404
lhand -14.284269 -29.277931
lfingers 7.837522
lthumb 14.417701 3.247024
rfemur -46.933483 6.988850 15.093980
rtibia 34.350800
rfoot -27.023149 -14.609210
rtoes -28.919880
lfemur 23.972631 0.842794 -29.388590
ltibia 0.000000
lfoot -16.676880 4.695988
ltoes -10.473804
506
root 11.524150 18.490229 38.484489 6.528412 5.483434 5.831067
lowerback -7.823772 -5.739800 -6.786835
upperback 0.164268 -7.158327 1.678732
thorax 5.507161 -3.735996 4.683327
lowerneck -26.055260 -3.209525 -11.501600
upperneck 25.622190 -3.817198 12.449140
head 13.174041 -1.125641 6.017814
rclavicle 0.000000 0.000000
rhumerus -55.072048 3.694823 -90.181190
rradius 32.324051
rwrist -15.685559
rhand -29.190260 -30.153311
rfingers 7.837522
rthumb 0.030216 -63.131088
lclavicle 0.000000 0.000000
lhumerus -22.334839 -28.887650 100.779358
lradius 36.808418
lwrist 6.290779
lhand -13.214520 -28.350302
lfingers 7.837522
lthumb 15.448730 4.105717
rfemur -46.973629 6.417785 14.835481
rtibia 35.377209
rfoot -27.023149 -14.609210
rtoes -28.919880
lfemur 24.845259 0.800484 -29.864559
ltibia 0.000000
lfoot -16.061319 4.621661
ltoes -11.786170
507
root 11.504790 18.481871 38.698658 6.431546 5.461357 5.459355
lowerback -7.793984 -5.558322 -6.275753
upperback 0.103845 -6.967895 1.810886
thorax 5.360839 -3.626502 4.571952
lowerneck -25.724270 -3.069176 -11.106259
upperneck 25.533310 -3.539987 11.583110
head 13.012450 -1.083001 5.646498
rclavicle 0.000000 -0.000000
rhumerus -55.430538 3.065480 -89.507874
rradius 32.100201
rwrist -15.347420
rhand -29.646759 -29.246029
rfingers 7.837522
rthumb -0.410637 -62.223370
lclavicle 0.000000 -0.000000
lhumerus -23.071951 -27.444448 101.458717
lradius 36.659149
lwrist 6.326837
lhand -9.798547 -27.266581
lfingers 7.837522
lthumb 18.738720 4.933841
rfemur -46.858021 5.418578 15.973870
rtibia 36.464230
rfoot -27.023149 -14.609210
rtoes -28.919880
lfemur 25.676420 0.800461 -29.301359
ltibia -0.000000
lfoot -15.624180 4.683305
ltoes -14.520550
